<?xml version="1.0" standalone="no"?>
<!DOCTYPE svg PUBLIC "-//W3C//DTD SVG 20010904//EN"
 "http://www.w3.org/TR/2001/REC-SVG-20010904/DTD/svg10.dtd">
<svg version="1.0" xmlns="http://www.w3.org/2000/svg"
 width="1600.000000pt" height="1108.000000pt" viewBox="0 0 1600.000000 1108.000000"
 preserveAspectRatio="xMidYMid meet">
<metadata>
Created by potrace 1.15, written by Peter Selinger 2001-2017
</metadata>
<g transform="translate(0.000000,1108.000000) scale(0.100000,-0.100000)"
fill="#000000" stroke="none">
<path d="M6320 7858 l0 -2863 -430 -145 c-236 -80 -430 -148 -430 -151 0 -3
82 -31 183 -61 381 -117 669 -207 673 -210 2 -3 5 -760 6 -1685 l2 -1680 216
-71 c118 -39 384 -125 590 -192 206 -67 470 -153 585 -190 627 -205 807 -262
811 -257 3 2 5 768 5 1701 0 933 4 1694 8 1691 8 -4 243 -78 1443 -450 l507
-158 588 196 c374 125 615 200 663 207 298 43 614 53 780 26 192 -32 285 -85
285 -165 0 -74 -74 -150 -225 -234 -100 -55 -208 -96 -617 -237 -207 -72 -378
-132 -380 -134 -4 -4 24 -13 207 -70 63 -19 390 -120 725 -225 336 -104 723
-224 860 -266 138 -43 257 -81 266 -86 21 -11 110 19 302 100 267 114 487 252
638 401 253 249 304 500 160 778 -235 452 -994 756 -2221 892 -102 11 -207 22
-235 25 -27 3 -147 12 -265 20 -961 65 -1982 -99 -3232 -519 l-248 -84 0 2404
c0 1699 3 2418 11 2454 37 175 279 273 522 211 138 -36 225 -99 274 -200 l28
-56 5 -1930 5 -1930 150 -38 c732 -183 1294 -132 1714 156 188 128 379 364
495 607 179 378 276 900 276 1491 0 680 -185 1246 -567 1729 -88 112 -323 346
-448 445 -410 327 -957 599 -1605 796 -91 28 -511 142 -935 254 -423 112 -804
213 -845 223 -75 20 -190 51 -435 115 -157 41 -292 77 -612 163 -134 35 -245
64 -248 64 -3 0 -5 -1288 -5 -2862z"/>
</g>
</svg>
